solid Front_beam
   facet normal 0.000000e+00 0.000000e+00 -1.000000e+00
      outer loop
         vertex 0.000000e+00 0.000000e+00 5.999997e+00
         vertex 0.000000e+00 2.000000e+01 5.999997e+00
         vertex 7.000000e+00 0.000000e+00 5.999997e+00
      endloop
   endfacet
   facet normal 0.000000e+00 0.000000e+00 -1.000000e+00
      outer loop
         vertex 7.000000e+00 0.000000e+00 5.999997e+00
         vertex 0.000000e+00 2.000000e+01 5.999997e+00
         vertex 7.000000e+00 2.000000e+01 5.999997e+00
      endloop
   endfacet
   facet normal 0.000000e+00 0.000000e+00 1.000000e+00
      outer loop
         vertex 2.000000e+01 2.000000e+01 1.160000e+02
         vertex 0.000000e+00 2.000000e+01 1.160000e+02
         vertex 2.000000e+01 1.300000e+01 1.160000e+02
      endloop
   endfacet
   facet normal 0.000000e+00 0.000000e+00 1.000000e+00
      outer loop
         vertex 2.000000e+01 1.300000e+01 1.160000e+02
         vertex 0.000000e+00 2.000000e+01 1.160000e+02
         vertex 0.000000e+00 1.300000e+01 1.160000e+02
      endloop
   endfacet
   facet normal -1.000000e+00 0.000000e+00 0.000000e+00
      outer loop
         vertex 0.000000e+00 7.000000e+00 1.180000e+02
         vertex 0.000000e+00 5.100000e+00 1.180000e+02
         vertex 0.000000e+00 7.000000e+00 1.220000e+02
      endloop
   endfacet
   facet normal -1.000000e+00 0.000000e+00 0.000000e+00
      outer loop
         vertex 0.000000e+00 1.300000e+01 1.160000e+02
         vertex 0.000000e+00 2.000000e+01 1.160000e+02
         vertex 0.000000e+00 2.000000e+01 5.999997e+00
      endloop
   endfacet
   facet normal -1.000000e+00 0.000000e+00 0.000000e+00
      outer loop
         vertex 0.000000e+00 1.300000e+01 1.220000e+02
         vertex 0.000000e+00 1.490000e+01 1.180000e+02
         vertex 0.000000e+00 1.300000e+01 1.180000e+02
      endloop
   endfacet
   facet normal -1.000000e+00 0.000000e+00 0.000000e+00
      outer loop
         vertex 0.000000e+00 0.000000e+00 5.999997e+00
         vertex 0.000000e+00 0.000000e+00 1.160000e+02
         vertex 0.000000e+00 7.000000e+00 1.160000e+02
      endloop
   endfacet
   facet normal -1.000000e+00 0.000000e+00 0.000000e+00
      outer loop
         vertex 0.000000e+00 2.000000e+01 5.999997e+00
         vertex 0.000000e+00 0.000000e+00 5.999997e+00
         vertex 0.000000e+00 1.300000e+01 1.160000e+02
      endloop
   endfacet
   facet normal -1.000000e+00 -0.000000e+00 0.000000e+00
      outer loop
         vertex 0.000000e+00 1.300000e+01 1.160000e+02
         vertex 0.000000e+00 0.000000e+00 5.999997e+00
         vertex 0.000000e+00 7.000000e+00 1.160000e+02
      endloop
   endfacet
   facet normal -1.000000e+00 0.000000e+00 0.000000e+00
      outer loop
         vertex 0.000000e+00 1.300000e+01 1.160000e+02
         vertex 0.000000e+00 7.000000e+00 1.160000e+02
         vertex 0.000000e+00 1.300000e+01 1.180000e+02
      endloop
   endfacet
   facet normal -1.000000e+00 -0.000000e+00 0.000000e+00
      outer loop
         vertex 0.000000e+00 1.300000e+01 1.180000e+02
         vertex 0.000000e+00 7.000000e+00 1.160000e+02
         vertex 0.000000e+00 7.000000e+00 1.180000e+02
      endloop
   endfacet
   facet normal -1.000000e+00 0.000000e+00 0.000000e+00
      outer loop
         vertex 0.000000e+00 1.300000e+01 1.180000e+02
         vertex 0.000000e+00 7.000000e+00 1.180000e+02
         vertex 0.000000e+00 1.300000e+01 1.220000e+02
      endloop
   endfacet
   facet normal -1.000000e+00 -0.000000e+00 0.000000e+00
      outer loop
         vertex 0.000000e+00 1.300000e+01 1.220000e+02
         vertex 0.000000e+00 7.000000e+00 1.180000e+02
         vertex 0.000000e+00 7.000000e+00 1.220000e+02
      endloop
   endfacet
   facet normal -0.000000e+00 0.000000e+00 1.000000e+00
      outer loop
         vertex 0.000000e+00 7.000000e+00 1.160000e+02
         vertex 0.000000e+00 0.000000e+00 1.160000e+02
         vertex 2.000000e+01 7.000000e+00 1.160000e+02
      endloop
   endfacet
   facet normal 0.000000e+00 0.000000e+00 1.000000e+00
      outer loop
         vertex 2.000000e+01 7.000000e+00 1.160000e+02
         vertex 0.000000e+00 0.000000e+00 1.160000e+02
         vertex 2.000000e+01 0.000000e+00 1.160000e+02
      endloop
   endfacet
   facet normal 1.000000e+00 0.000000e+00 0.000000e+00
      outer loop
         vertex 2.000000e+01 7.000000e+00 1.160000e+02
         vertex 2.000000e+01 0.000000e+00 1.160000e+02
         vertex 2.000000e+01 0.000000e+00 5.999997e+00
      endloop
   endfacet
   facet normal 1.000000e+00 -0.000000e+00 0.000000e+00
      outer loop
         vertex 2.000000e+01 7.000000e+00 1.220000e+02
         vertex 2.000000e+01 5.100000e+00 1.180000e+02
         vertex 2.000000e+01 1.300000e+01 1.220000e+02
      endloop
   endfacet
   facet normal 1.000000e+00 0.000000e+00 0.000000e+00
      outer loop
         vertex 2.000000e+01 1.300000e+01 1.220000e+02
         vertex 2.000000e+01 5.100000e+00 1.180000e+02
         vertex 2.000000e+01 7.000000e+00 1.180000e+02
      endloop
   endfacet
   facet normal 1.000000e+00 0.000000e+00 -0.000000e+00
      outer loop
         vertex 2.000000e+01 2.000000e+01 5.999997e+00
         vertex 2.000000e+01 2.000000e+01 1.160000e+02
         vertex 2.000000e+01 1.300000e+01 1.160000e+02
      endloop
   endfacet
   facet normal 1.000000e+00 0.000000e+00 0.000000e+00
      outer loop
         vertex 2.000000e+01 1.490000e+01 1.180000e+02
         vertex 2.000000e+01 1.300000e+01 1.220000e+02
         vertex 2.000000e+01 1.300000e+01 1.180000e+02
      endloop
   endfacet
   facet normal 1.000000e+00 0.000000e+00 -0.000000e+00
      outer loop
         vertex 2.000000e+01 1.300000e+01 1.180000e+02
         vertex 2.000000e+01 1.300000e+01 1.220000e+02
         vertex 2.000000e+01 7.000000e+00 1.180000e+02
      endloop
   endfacet
   facet normal 1.000000e+00 0.000000e+00 0.000000e+00
      outer loop
         vertex 2.000000e+01 1.300000e+01 1.180000e+02
         vertex 2.000000e+01 7.000000e+00 1.180000e+02
         vertex 2.000000e+01 1.300000e+01 1.160000e+02
      endloop
   endfacet
   facet normal 1.000000e+00 0.000000e+00 0.000000e+00
      outer loop
         vertex 2.000000e+01 1.300000e+01 1.160000e+02
         vertex 2.000000e+01 7.000000e+00 1.180000e+02
         vertex 2.000000e+01 7.000000e+00 1.160000e+02
      endloop
   endfacet
   facet normal 1.000000e+00 0.000000e+00 0.000000e+00
      outer loop
         vertex 2.000000e+01 1.300000e+01 1.160000e+02
         vertex 2.000000e+01 7.000000e+00 1.160000e+02
         vertex 2.000000e+01 2.000000e+01 5.999997e+00
      endloop
   endfacet
   facet normal 1.000000e+00 0.000000e+00 0.000000e+00
      outer loop
         vertex 2.000000e+01 2.000000e+01 5.999997e+00
         vertex 2.000000e+01 7.000000e+00 1.160000e+02
         vertex 2.000000e+01 0.000000e+00 5.999997e+00
      endloop
   endfacet
   facet normal 0.000000e+00 0.000000e+00 -1.000000e+00
      outer loop
         vertex 1.300000e+01 2.000000e+01 5.999997e+00
         vertex 2.000000e+01 2.000000e+01 5.999997e+00
         vertex 1.300000e+01 0.000000e+00 5.999997e+00
      endloop
   endfacet
   facet normal 0.000000e+00 0.000000e+00 -1.000000e+00
      outer loop
         vertex 1.300000e+01 0.000000e+00 5.999997e+00
         vertex 2.000000e+01 2.000000e+01 5.999997e+00
         vertex 2.000000e+01 0.000000e+00 5.999997e+00
      endloop
   endfacet
   facet normal -0.000000e+00 1.000000e+00 0.000000e+00
      outer loop
         vertex 1.300000e+01 2.000000e+01 3.999993e+00
         vertex 1.490000e+01 2.000000e+01 3.999993e+00
         vertex 1.300000e+01 2.000000e+01 0.000000e+00
      endloop
   endfacet
   facet normal 0.000000e+00 1.000000e+00 0.000000e+00
      outer loop
         vertex 7.000000e+00 2.000000e+01 5.999997e+00
         vertex 0.000000e+00 2.000000e+01 5.999997e+00
         vertex 0.000000e+00 2.000000e+01 1.160000e+02
      endloop
   endfacet
   facet normal 0.000000e+00 1.000000e+00 -0.000000e+00
      outer loop
         vertex 7.000000e+00 2.000000e+01 0.000000e+00
         vertex 5.100000e+00 2.000000e+01 3.999993e+00
         vertex 7.000000e+00 2.000000e+01 3.999993e+00
      endloop
   endfacet
   facet normal 0.000000e+00 1.000000e+00 0.000000e+00
      outer loop
         vertex 2.000000e+01 2.000000e+01 1.160000e+02
         vertex 2.000000e+01 2.000000e+01 5.999997e+00
         vertex 1.300000e+01 2.000000e+01 5.999997e+00
      endloop
   endfacet
   facet normal 0.000000e+00 1.000000e+00 -0.000000e+00
      outer loop
         vertex 1.300000e+01 2.000000e+01 0.000000e+00
         vertex 7.000000e+00 2.000000e+01 0.000000e+00
         vertex 1.300000e+01 2.000000e+01 3.999993e+00
      endloop
   endfacet
   facet normal 0.000000e+00 1.000000e+00 0.000000e+00
      outer loop
         vertex 1.300000e+01 2.000000e+01 3.999993e+00
         vertex 7.000000e+00 2.000000e+01 0.000000e+00
         vertex 7.000000e+00 2.000000e+01 3.999993e+00
      endloop
   endfacet
   facet normal 0.000000e+00 1.000000e+00 -0.000000e+00
      outer loop
         vertex 1.300000e+01 2.000000e+01 3.999993e+00
         vertex 7.000000e+00 2.000000e+01 3.999993e+00
         vertex 1.300000e+01 2.000000e+01 5.999997e+00
      endloop
   endfacet
   facet normal 0.000000e+00 1.000000e+00 0.000000e+00
      outer loop
         vertex 1.300000e+01 2.000000e+01 5.999997e+00
         vertex 7.000000e+00 2.000000e+01 3.999993e+00
         vertex 7.000000e+00 2.000000e+01 5.999997e+00
      endloop
   endfacet
   facet normal 0.000000e+00 1.000000e+00 -0.000000e+00
      outer loop
         vertex 1.300000e+01 2.000000e+01 5.999997e+00
         vertex 7.000000e+00 2.000000e+01 5.999997e+00
         vertex 2.000000e+01 2.000000e+01 1.160000e+02
      endloop
   endfacet
   facet normal 0.000000e+00 1.000000e+00 0.000000e+00
      outer loop
         vertex 2.000000e+01 2.000000e+01 1.160000e+02
         vertex 7.000000e+00 2.000000e+01 5.999997e+00
         vertex 0.000000e+00 2.000000e+01 1.160000e+02
      endloop
   endfacet
   facet normal 0.000000e+00 -1.000000e+00 0.000000e+00
      outer loop
         vertex 1.300000e+01 0.000000e+00 0.000000e+00
         vertex 1.490000e+01 0.000000e+00 3.999993e+00
         vertex 7.000000e+00 0.000000e+00 0.000000e+00
      endloop
   endfacet
   facet normal 0.000000e+00 -1.000000e+00 0.000000e+00
      outer loop
         vertex 7.000000e+00 0.000000e+00 0.000000e+00
         vertex 1.490000e+01 0.000000e+00 3.999993e+00
         vertex 1.300000e+01 0.000000e+00 3.999993e+00
      endloop
   endfacet
   facet normal 0.000000e+00 -1.000000e+00 0.000000e+00
      outer loop
         vertex 0.000000e+00 0.000000e+00 1.160000e+02
         vertex 0.000000e+00 0.000000e+00 5.999997e+00
         vertex 2.000000e+01 0.000000e+00 1.160000e+02
      endloop
   endfacet
   facet normal 0.000000e+00 -1.000000e+00 0.000000e+00
      outer loop
         vertex 2.000000e+01 0.000000e+00 1.160000e+02
         vertex 0.000000e+00 0.000000e+00 5.999997e+00
         vertex 7.000000e+00 0.000000e+00 5.999997e+00
      endloop
   endfacet
   facet normal 0.000000e+00 -1.000000e+00 0.000000e+00
      outer loop
         vertex 2.000000e+01 0.000000e+00 5.999997e+00
         vertex 2.000000e+01 0.000000e+00 1.160000e+02
         vertex 1.300000e+01 0.000000e+00 5.999997e+00
      endloop
   endfacet
   facet normal 0.000000e+00 -1.000000e+00 0.000000e+00
      outer loop
         vertex 1.300000e+01 0.000000e+00 5.999997e+00
         vertex 2.000000e+01 0.000000e+00 1.160000e+02
         vertex 7.000000e+00 0.000000e+00 5.999997e+00
      endloop
   endfacet
   facet normal -0.000000e+00 -1.000000e+00 -0.000000e+00
      outer loop
         vertex 1.300000e+01 0.000000e+00 5.999997e+00
         vertex 7.000000e+00 0.000000e+00 5.999997e+00
         vertex 1.300000e+01 0.000000e+00 3.999993e+00
      endloop
   endfacet
   facet normal 0.000000e+00 -1.000000e+00 0.000000e+00
      outer loop
         vertex 1.300000e+01 0.000000e+00 3.999993e+00
         vertex 7.000000e+00 0.000000e+00 5.999997e+00
         vertex 7.000000e+00 0.000000e+00 3.999993e+00
      endloop
   endfacet
   facet normal -0.000000e+00 -1.000000e+00 0.000000e+00
      outer loop
         vertex 1.300000e+01 0.000000e+00 3.999993e+00
         vertex 7.000000e+00 0.000000e+00 3.999993e+00
         vertex 7.000000e+00 0.000000e+00 0.000000e+00
      endloop
   endfacet
   facet normal 0.000000e+00 -1.000000e+00 0.000000e+00
      outer loop
         vertex 7.000000e+00 0.000000e+00 0.000000e+00
         vertex 7.000000e+00 0.000000e+00 3.999993e+00
         vertex 5.100000e+00 0.000000e+00 3.999993e+00
      endloop
   endfacet
   facet normal 0.000000e+00 0.000000e+00 1.000000e+00
      outer loop
         vertex 2.000000e+01 1.300000e+01 1.220000e+02
         vertex 0.000000e+00 1.300000e+01 1.220000e+02
         vertex 2.000000e+01 7.000000e+00 1.220000e+02
      endloop
   endfacet
   facet normal 0.000000e+00 0.000000e+00 1.000000e+00
      outer loop
         vertex 2.000000e+01 7.000000e+00 1.220000e+02
         vertex 0.000000e+00 1.300000e+01 1.220000e+02
         vertex 0.000000e+00 7.000000e+00 1.220000e+02
      endloop
   endfacet
   facet normal 0.000000e+00 9.032775e-01 4.290567e-01
      outer loop
         vertex 2.000000e+01 1.490000e+01 1.180000e+02
         vertex -1.387779e-14 1.490000e+01 1.180000e+02
         vertex 2.000000e+01 1.300000e+01 1.220000e+02
      endloop
   endfacet
   facet normal 0.000000e+00 9.032775e-01 4.290567e-01
      outer loop
         vertex 2.000000e+01 1.300000e+01 1.220000e+02
         vertex -1.387779e-14 1.490000e+01 1.180000e+02
         vertex -1.387779e-14 1.300000e+01 1.220000e+02
      endloop
   endfacet
   facet normal 0.000000e+00 0.000000e+00 -1.000000e+00
      outer loop
         vertex 2.000000e+01 1.300000e+01 1.180000e+02
         vertex 0.000000e+00 1.300000e+01 1.180000e+02
         vertex 2.000000e+01 1.490000e+01 1.180000e+02
      endloop
   endfacet
   facet normal -0.000000e+00 0.000000e+00 -1.000000e+00
      outer loop
         vertex 2.000000e+01 1.490000e+01 1.180000e+02
         vertex 0.000000e+00 1.300000e+01 1.180000e+02
         vertex 0.000000e+00 1.490000e+01 1.180000e+02
      endloop
   endfacet
   facet normal 0.000000e+00 1.000000e+00 -0.000000e+00
      outer loop
         vertex 2.000000e+01 1.300000e+01 1.160000e+02
         vertex 0.000000e+00 1.300000e+01 1.160000e+02
         vertex 2.000000e+01 1.300000e+01 1.180000e+02
      endloop
   endfacet
   facet normal 0.000000e+00 1.000000e+00 0.000000e+00
      outer loop
         vertex 2.000000e+01 1.300000e+01 1.180000e+02
         vertex 0.000000e+00 1.300000e+01 1.160000e+02
         vertex 0.000000e+00 1.300000e+01 1.180000e+02
      endloop
   endfacet
   facet normal -0.000000e+00 -1.000000e+00 -0.000000e+00
      outer loop
         vertex 2.000000e+01 7.000000e+00 1.180000e+02
         vertex 0.000000e+00 7.000000e+00 1.180000e+02
         vertex 2.000000e+01 7.000000e+00 1.160000e+02
      endloop
   endfacet
   facet normal -0.000000e+00 -1.000000e+00 0.000000e+00
      outer loop
         vertex 2.000000e+01 7.000000e+00 1.160000e+02
         vertex 0.000000e+00 7.000000e+00 1.180000e+02
         vertex 0.000000e+00 7.000000e+00 1.160000e+02
      endloop
   endfacet
   facet normal 0.000000e+00 0.000000e+00 -1.000000e+00
      outer loop
         vertex 2.000000e+01 5.100000e+00 1.180000e+02
         vertex 0.000000e+00 5.100000e+00 1.180000e+02
         vertex 2.000000e+01 7.000000e+00 1.180000e+02
      endloop
   endfacet
   facet normal -0.000000e+00 0.000000e+00 -1.000000e+00
      outer loop
         vertex 2.000000e+01 7.000000e+00 1.180000e+02
         vertex 0.000000e+00 5.100000e+00 1.180000e+02
         vertex 0.000000e+00 7.000000e+00 1.180000e+02
      endloop
   endfacet
   facet normal 0.000000e+00 -9.032775e-01 4.290568e-01
      outer loop
         vertex 2.000000e+01 7.000000e+00 1.220000e+02
         vertex -1.387779e-14 7.000000e+00 1.220000e+02
         vertex 2.000000e+01 5.100000e+00 1.180000e+02
      endloop
   endfacet
   facet normal 0.000000e+00 -9.032775e-01 4.290568e-01
      outer loop
         vertex 2.000000e+01 5.100000e+00 1.180000e+02
         vertex -1.387779e-14 7.000000e+00 1.220000e+02
         vertex -1.387779e-14 5.100000e+00 1.180000e+02
      endloop
   endfacet
   facet normal 0.000000e+00 0.000000e+00 -1.000000e+00
      outer loop
         vertex 7.000000e+00 0.000000e+00 0.000000e+00
         vertex 7.000000e+00 2.000000e+01 0.000000e+00
         vertex 1.300000e+01 0.000000e+00 0.000000e+00
      endloop
   endfacet
   facet normal 0.000000e+00 0.000000e+00 -1.000000e+00
      outer loop
         vertex 1.300000e+01 0.000000e+00 0.000000e+00
         vertex 7.000000e+00 2.000000e+01 0.000000e+00
         vertex 1.300000e+01 2.000000e+01 0.000000e+00
      endloop
   endfacet
   facet normal -9.032772e-01 0.000000e+00 -4.290574e-01
      outer loop
         vertex 5.100000e+00 3.469447e-15 3.999993e+00
         vertex 5.100000e+00 2.000000e+01 3.999993e+00
         vertex 7.000000e+00 3.469447e-15 0.000000e+00
      endloop
   endfacet
   facet normal -9.032772e-01 0.000000e+00 -4.290574e-01
      outer loop
         vertex 7.000000e+00 3.469447e-15 0.000000e+00
         vertex 5.100000e+00 2.000000e+01 3.999993e+00
         vertex 7.000000e+00 2.000000e+01 0.000000e+00
      endloop
   endfacet
   facet normal 0.000000e+00 -0.000000e+00 1.000000e+00
      outer loop
         vertex 7.000000e+00 0.000000e+00 3.999993e+00
         vertex 7.000000e+00 2.000000e+01 3.999993e+00
         vertex 5.100000e+00 0.000000e+00 3.999993e+00
      endloop
   endfacet
   facet normal 0.000000e+00 0.000000e+00 1.000000e+00
      outer loop
         vertex 5.100000e+00 0.000000e+00 3.999993e+00
         vertex 7.000000e+00 2.000000e+01 3.999993e+00
         vertex 5.100000e+00 2.000000e+01 3.999993e+00
      endloop
   endfacet
   facet normal -1.000000e+00 0.000000e+00 0.000000e+00
      outer loop
         vertex 7.000000e+00 0.000000e+00 5.999997e+00
         vertex 7.000000e+00 2.000000e+01 5.999997e+00
         vertex 7.000000e+00 0.000000e+00 3.999993e+00
      endloop
   endfacet
   facet normal -1.000000e+00 0.000000e+00 0.000000e+00
      outer loop
         vertex 7.000000e+00 0.000000e+00 3.999993e+00
         vertex 7.000000e+00 2.000000e+01 5.999997e+00
         vertex 7.000000e+00 2.000000e+01 3.999993e+00
      endloop
   endfacet
   facet normal 1.000000e+00 0.000000e+00 0.000000e+00
      outer loop
         vertex 1.300000e+01 0.000000e+00 3.999993e+00
         vertex 1.300000e+01 2.000000e+01 3.999993e+00
         vertex 1.300000e+01 0.000000e+00 5.999997e+00
      endloop
   endfacet
   facet normal 1.000000e+00 -0.000000e+00 0.000000e+00
      outer loop
         vertex 1.300000e+01 0.000000e+00 5.999997e+00
         vertex 1.300000e+01 2.000000e+01 3.999993e+00
         vertex 1.300000e+01 2.000000e+01 5.999997e+00
      endloop
   endfacet
   facet normal 0.000000e+00 -0.000000e+00 1.000000e+00
      outer loop
         vertex 1.490000e+01 0.000000e+00 3.999993e+00
         vertex 1.490000e+01 2.000000e+01 3.999993e+00
         vertex 1.300000e+01 0.000000e+00 3.999993e+00
      endloop
   endfacet
   facet normal 0.000000e+00 0.000000e+00 1.000000e+00
      outer loop
         vertex 1.300000e+01 0.000000e+00 3.999993e+00
         vertex 1.490000e+01 2.000000e+01 3.999993e+00
         vertex 1.300000e+01 2.000000e+01 3.999993e+00
      endloop
   endfacet
   facet normal 9.032773e-01 0.000000e+00 -4.290573e-01
      outer loop
         vertex 1.300000e+01 3.469447e-15 0.000000e+00
         vertex 1.300000e+01 2.000000e+01 0.000000e+00
         vertex 1.490000e+01 3.469447e-15 3.999993e+00
      endloop
   endfacet
   facet normal 9.032773e-01 0.000000e+00 -4.290573e-01
      outer loop
         vertex 1.490000e+01 3.469447e-15 3.999993e+00
         vertex 1.300000e+01 2.000000e+01 0.000000e+00
         vertex 1.490000e+01 2.000000e+01 3.999993e+00
      endloop
   endfacet
endsolid