solid Plexi_connector
   facet normal 0.000000e+00 0.000000e+00 1.000000e+00
      outer loop
         vertex 4.000000e+01 8.000000e+01 3.335000e+01
         vertex 1.000000e+01 8.000000e+01 3.335000e+01
         vertex 4.000000e+01 0.000000e+00 3.335000e+01
      endloop
   endfacet
   facet normal 0.000000e+00 0.000000e+00 1.000000e+00
      outer loop
         vertex 4.000000e+01 0.000000e+00 3.335000e+01
         vertex 1.000000e+01 8.000000e+01 3.335000e+01
         vertex 1.000000e+01 0.000000e+00 3.335000e+01
      endloop
   endfacet
   facet normal 1.000000e+00 0.000000e+00 -0.000000e+00
      outer loop
         vertex 4.000000e+01 8.000000e+01 3.000000e+01
         vertex 4.000000e+01 8.000000e+01 3.335000e+01
         vertex 4.000000e+01 0.000000e+00 3.000000e+01
      endloop
   endfacet
   facet normal 1.000000e+00 0.000000e+00 0.000000e+00
      outer loop
         vertex 4.000000e+01 0.000000e+00 3.000000e+01
         vertex 4.000000e+01 8.000000e+01 3.335000e+01
         vertex 4.000000e+01 0.000000e+00 3.335000e+01
      endloop
   endfacet
   facet normal 0.000000e+00 0.000000e+00 -1.000000e+00
      outer loop
         vertex 1.000000e+01 8.000000e+01 3.000000e+01
         vertex 4.000000e+01 8.000000e+01 3.000000e+01
         vertex 1.000000e+01 0.000000e+00 3.000000e+01
      endloop
   endfacet
   facet normal 0.000000e+00 0.000000e+00 -1.000000e+00
      outer loop
         vertex 1.000000e+01 0.000000e+00 3.000000e+01
         vertex 4.000000e+01 8.000000e+01 3.000000e+01
         vertex 4.000000e+01 0.000000e+00 3.000000e+01
      endloop
   endfacet
   facet normal 1.000000e+00 0.000000e+00 -0.000000e+00
      outer loop
         vertex 1.000000e+01 8.000000e+01 0.000000e+00
         vertex 1.000000e+01 8.000000e+01 3.000000e+01
         vertex 1.000000e+01 0.000000e+00 0.000000e+00
      endloop
   endfacet
   facet normal 1.000000e+00 0.000000e+00 0.000000e+00
      outer loop
         vertex 1.000000e+01 0.000000e+00 0.000000e+00
         vertex 1.000000e+01 8.000000e+01 3.000000e+01
         vertex 1.000000e+01 0.000000e+00 3.000000e+01
      endloop
   endfacet
   facet normal 0.000000e+00 0.000000e+00 -1.000000e+00
      outer loop
         vertex 6.650000e+00 8.000000e+01 0.000000e+00
         vertex 1.000000e+01 8.000000e+01 0.000000e+00
         vertex 6.650000e+00 0.000000e+00 0.000000e+00
      endloop
   endfacet
   facet normal 0.000000e+00 0.000000e+00 -1.000000e+00
      outer loop
         vertex 6.650000e+00 0.000000e+00 0.000000e+00
         vertex 1.000000e+01 8.000000e+01 0.000000e+00
         vertex 1.000000e+01 0.000000e+00 0.000000e+00
      endloop
   endfacet
   facet normal -1.000000e+00 -0.000000e+00 -0.000000e+00
      outer loop
         vertex 6.650000e+00 8.000000e+01 3.000000e+01
         vertex 6.650000e+00 8.000000e+01 0.000000e+00
         vertex 6.650000e+00 0.000000e+00 3.000000e+01
      endloop
   endfacet
   facet normal -1.000000e+00 0.000000e+00 0.000000e+00
      outer loop
         vertex 6.650000e+00 0.000000e+00 3.000000e+01
         vertex 6.650000e+00 8.000000e+01 0.000000e+00
         vertex 6.650000e+00 0.000000e+00 0.000000e+00
      endloop
   endfacet
   facet normal 0.000000e+00 0.000000e+00 -1.000000e+00
      outer loop
         vertex 3.350000e+00 8.000000e+01 3.000000e+01
         vertex 6.650000e+00 8.000000e+01 3.000000e+01
         vertex 3.350000e+00 0.000000e+00 3.000000e+01
      endloop
   endfacet
   facet normal 0.000000e+00 0.000000e+00 -1.000000e+00
      outer loop
         vertex 3.350000e+00 0.000000e+00 3.000000e+01
         vertex 6.650000e+00 8.000000e+01 3.000000e+01
         vertex 6.650000e+00 0.000000e+00 3.000000e+01
      endloop
   endfacet
   facet normal 1.000000e+00 0.000000e+00 -0.000000e+00
      outer loop
         vertex 3.350000e+00 8.000000e+01 0.000000e+00
         vertex 3.350000e+00 8.000000e+01 3.000000e+01
         vertex 3.350000e+00 0.000000e+00 0.000000e+00
      endloop
   endfacet
   facet normal 1.000000e+00 0.000000e+00 0.000000e+00
      outer loop
         vertex 3.350000e+00 0.000000e+00 0.000000e+00
         vertex 3.350000e+00 8.000000e+01 3.000000e+01
         vertex 3.350000e+00 0.000000e+00 3.000000e+01
      endloop
   endfacet
   facet normal 0.000000e+00 0.000000e+00 -1.000000e+00
      outer loop
         vertex 0.000000e+00 8.000000e+01 0.000000e+00
         vertex 3.350000e+00 8.000000e+01 0.000000e+00
         vertex 0.000000e+00 0.000000e+00 0.000000e+00
      endloop
   endfacet
   facet normal 0.000000e+00 0.000000e+00 -1.000000e+00
      outer loop
         vertex 0.000000e+00 0.000000e+00 0.000000e+00
         vertex 3.350000e+00 8.000000e+01 0.000000e+00
         vertex 3.350000e+00 0.000000e+00 0.000000e+00
      endloop
   endfacet
   facet normal -1.000000e+00 -0.000000e+00 -0.000000e+00
      outer loop
         vertex 0.000000e+00 8.000000e+01 3.250000e+01
         vertex 0.000000e+00 8.000000e+01 0.000000e+00
         vertex 0.000000e+00 0.000000e+00 3.250000e+01
      endloop
   endfacet
   facet normal -1.000000e+00 0.000000e+00 0.000000e+00
      outer loop
         vertex 0.000000e+00 0.000000e+00 3.250000e+01
         vertex 0.000000e+00 8.000000e+01 0.000000e+00
         vertex 0.000000e+00 0.000000e+00 0.000000e+00
      endloop
   endfacet
   facet normal 0.000000e+00 0.000000e+00 1.000000e+00
      outer loop
         vertex 7.500000e+00 0.000000e+00 4.000000e+01
         vertex 4.000000e+01 0.000000e+00 4.000000e+01
         vertex 7.500000e+00 8.000000e+01 4.000000e+01
      endloop
   endfacet
   facet normal -0.000000e+00 0.000000e+00 1.000000e+00
      outer loop
         vertex 7.500000e+00 8.000000e+01 4.000000e+01
         vertex 4.000000e+01 0.000000e+00 4.000000e+01
         vertex 4.000000e+01 8.000000e+01 4.000000e+01
      endloop
   endfacet
   facet normal 1.000000e+00 0.000000e+00 -0.000000e+00
      outer loop
         vertex 4.000000e+01 8.000000e+01 3.665000e+01
         vertex 4.000000e+01 8.000000e+01 4.000000e+01
         vertex 4.000000e+01 0.000000e+00 3.665000e+01
      endloop
   endfacet
   facet normal 1.000000e+00 0.000000e+00 0.000000e+00
      outer loop
         vertex 4.000000e+01 0.000000e+00 3.665000e+01
         vertex 4.000000e+01 8.000000e+01 4.000000e+01
         vertex 4.000000e+01 0.000000e+00 4.000000e+01
      endloop
   endfacet
   facet normal 0.000000e+00 0.000000e+00 -1.000000e+00
      outer loop
         vertex 1.000000e+01 8.000000e+01 3.665000e+01
         vertex 4.000000e+01 8.000000e+01 3.665000e+01
         vertex 1.000000e+01 0.000000e+00 3.665000e+01
      endloop
   endfacet
   facet normal 0.000000e+00 0.000000e+00 -1.000000e+00
      outer loop
         vertex 1.000000e+01 0.000000e+00 3.665000e+01
         vertex 4.000000e+01 8.000000e+01 3.665000e+01
         vertex 4.000000e+01 0.000000e+00 3.665000e+01
      endloop
   endfacet
   facet normal 1.000000e+00 0.000000e+00 -0.000000e+00
      outer loop
         vertex 1.000000e+01 8.000000e+01 3.335000e+01
         vertex 1.000000e+01 8.000000e+01 3.665000e+01
         vertex 1.000000e+01 0.000000e+00 3.335000e+01
      endloop
   endfacet
   facet normal 1.000000e+00 0.000000e+00 0.000000e+00
      outer loop
         vertex 1.000000e+01 0.000000e+00 3.335000e+01
         vertex 1.000000e+01 8.000000e+01 3.665000e+01
         vertex 1.000000e+01 0.000000e+00 3.665000e+01
      endloop
   endfacet
   facet normal 0.000000e+00 1.000000e+00 0.000000e+00
      outer loop
         vertex 1.000000e+01 8.000000e+01 3.000000e+01
         vertex 1.000000e+01 8.000000e+01 0.000000e+00
         vertex 6.650000e+00 8.000000e+01 0.000000e+00
      endloop
   endfacet
   facet normal 0.000000e+00 1.000000e+00 0.000000e+00
      outer loop
         vertex 4.000000e+01 8.000000e+01 4.000000e+01
         vertex 4.000000e+01 8.000000e+01 3.665000e+01
         vertex 7.500000e+00 8.000000e+01 4.000000e+01
      endloop
   endfacet
   facet normal 0.000000e+00 1.000000e+00 0.000000e+00
      outer loop
         vertex 7.500000e+00 8.000000e+01 4.000000e+01
         vertex 4.000000e+01 8.000000e+01 3.665000e+01
         vertex 1.000000e+01 8.000000e+01 3.665000e+01
      endloop
   endfacet
   facet normal 0.000000e+00 1.000000e+00 0.000000e+00
      outer loop
         vertex 3.350000e+00 8.000000e+01 3.000000e+01
         vertex 3.350000e+00 8.000000e+01 0.000000e+00
         vertex 0.000000e+00 8.000000e+01 0.000000e+00
      endloop
   endfacet
   facet normal -0.000000e+00 1.000000e+00 0.000000e+00
      outer loop
         vertex 1.754667e+00 8.000000e+01 3.732091e+01
         vertex 2.679093e+00 8.000000e+01 3.824533e+01
         vertex 1.000000e+01 8.000000e+01 3.335000e+01
      endloop
   endfacet
   facet normal 0.000000e+00 1.000000e+00 0.000000e+00
      outer loop
         vertex 4.000000e+01 8.000000e+01 3.335000e+01
         vertex 4.000000e+01 8.000000e+01 3.000000e+01
         vertex 1.000000e+01 8.000000e+01 3.335000e+01
      endloop
   endfacet
   facet normal 0.000000e+00 1.000000e+00 0.000000e+00
      outer loop
         vertex 1.000000e+01 8.000000e+01 3.335000e+01
         vertex 4.000000e+01 8.000000e+01 3.000000e+01
         vertex 1.000000e+01 8.000000e+01 3.000000e+01
      endloop
   endfacet
   facet normal 0.000000e+00 1.000000e+00 0.000000e+00
      outer loop
         vertex 1.000000e+01 8.000000e+01 3.335000e+01
         vertex 1.000000e+01 8.000000e+01 3.000000e+01
         vertex 6.650000e+00 8.000000e+01 3.000000e+01
      endloop
   endfacet
   facet normal -0.000000e+00 1.000000e+00 0.000000e+00
      outer loop
         vertex 6.650000e+00 8.000000e+01 3.000000e+01
         vertex 1.000000e+01 8.000000e+01 3.000000e+01
         vertex 6.650000e+00 8.000000e+01 0.000000e+00
      endloop
   endfacet
   facet normal 0.000000e+00 1.000000e+00 0.000000e+00
      outer loop
         vertex 0.000000e+00 8.000000e+01 0.000000e+00
         vertex 0.000000e+00 8.000000e+01 3.250000e+01
         vertex 3.350000e+00 8.000000e+01 3.000000e+01
      endloop
   endfacet
   facet normal 0.000000e+00 1.000000e+00 0.000000e+00
      outer loop
         vertex 3.350000e+00 8.000000e+01 3.000000e+01
         vertex 0.000000e+00 8.000000e+01 3.250000e+01
         vertex 1.139419e-01 8.000000e+01 3.380236e+01
      endloop
   endfacet
   facet normal 0.000000e+00 1.000000e+00 -0.000000e+00
      outer loop
         vertex 3.350000e+00 8.000000e+01 3.000000e+01
         vertex 1.139419e-01 8.000000e+01 3.380236e+01
         vertex 6.650000e+00 8.000000e+01 3.000000e+01
      endloop
   endfacet
   facet normal 0.000000e+00 1.000000e+00 0.000000e+00
      outer loop
         vertex 6.650000e+00 8.000000e+01 3.000000e+01
         vertex 1.139419e-01 8.000000e+01 3.380236e+01
         vertex 4.523053e-01 8.000000e+01 3.506515e+01
      endloop
   endfacet
   facet normal 0.000000e+00 1.000000e+00 -0.000000e+00
      outer loop
         vertex 6.650000e+00 8.000000e+01 3.000000e+01
         vertex 4.523053e-01 8.000000e+01 3.506515e+01
         vertex 1.000000e+01 8.000000e+01 3.335000e+01
      endloop
   endfacet
   facet normal 0.000000e+00 1.000000e+00 0.000000e+00
      outer loop
         vertex 1.000000e+01 8.000000e+01 3.335000e+01
         vertex 4.523053e-01 8.000000e+01 3.506515e+01
         vertex 1.004810e+00 8.000000e+01 3.625000e+01
      endloop
   endfacet
   facet normal 0.000000e+00 1.000000e+00 0.000000e+00
      outer loop
         vertex 1.000000e+01 8.000000e+01 3.335000e+01
         vertex 1.004810e+00 8.000000e+01 3.625000e+01
         vertex 1.754667e+00 8.000000e+01 3.732091e+01
      endloop
   endfacet
   facet normal -0.000000e+00 1.000000e+00 0.000000e+00
      outer loop
         vertex 2.679093e+00 8.000000e+01 3.824533e+01
         vertex 3.750000e+00 8.000000e+01 3.899519e+01
         vertex 1.000000e+01 8.000000e+01 3.335000e+01
      endloop
   endfacet
   facet normal 0.000000e+00 1.000000e+00 0.000000e+00
      outer loop
         vertex 1.000000e+01 8.000000e+01 3.335000e+01
         vertex 3.750000e+00 8.000000e+01 3.899519e+01
         vertex 4.934849e+00 8.000000e+01 3.954769e+01
      endloop
   endfacet
   facet normal 0.000000e+00 1.000000e+00 -0.000000e+00
      outer loop
         vertex 1.000000e+01 8.000000e+01 3.335000e+01
         vertex 4.934849e+00 8.000000e+01 3.954769e+01
         vertex 1.000000e+01 8.000000e+01 3.665000e+01
      endloop
   endfacet
   facet normal 0.000000e+00 1.000000e+00 0.000000e+00
      outer loop
         vertex 1.000000e+01 8.000000e+01 3.665000e+01
         vertex 4.934849e+00 8.000000e+01 3.954769e+01
         vertex 6.197639e+00 8.000000e+01 3.988606e+01
      endloop
   endfacet
   facet normal 0.000000e+00 1.000000e+00 0.000000e+00
      outer loop
         vertex 1.000000e+01 8.000000e+01 3.665000e+01
         vertex 6.197639e+00 8.000000e+01 3.988606e+01
         vertex 7.500000e+00 8.000000e+01 4.000000e+01
      endloop
   endfacet
   facet normal 0.000000e+00 -1.000000e+00 0.000000e+00
      outer loop
         vertex 1.000000e+01 0.000000e+00 3.000000e+01
         vertex 4.000000e+01 0.000000e+00 3.000000e+01
         vertex 4.000000e+01 0.000000e+00 3.335000e+01
      endloop
   endfacet
   facet normal 0.000000e+00 -1.000000e+00 0.000000e+00
      outer loop
         vertex 0.000000e+00 0.000000e+00 0.000000e+00
         vertex 3.350000e+00 0.000000e+00 0.000000e+00
         vertex 0.000000e+00 0.000000e+00 3.250000e+01
      endloop
   endfacet
   facet normal 0.000000e+00 -1.000000e+00 0.000000e+00
      outer loop
         vertex 0.000000e+00 0.000000e+00 3.250000e+01
         vertex 3.350000e+00 0.000000e+00 0.000000e+00
         vertex 3.350000e+00 0.000000e+00 3.000000e+01
      endloop
   endfacet
   facet normal 0.000000e+00 -1.000000e+00 0.000000e+00
      outer loop
         vertex 1.000000e+01 0.000000e+00 3.665000e+01
         vertex 4.000000e+01 0.000000e+00 3.665000e+01
         vertex 4.000000e+01 0.000000e+00 4.000000e+01
      endloop
   endfacet
   facet normal 0.000000e+00 -1.000000e+00 0.000000e+00
      outer loop
         vertex 6.650000e+00 0.000000e+00 0.000000e+00
         vertex 1.000000e+01 0.000000e+00 0.000000e+00
         vertex 6.650000e+00 0.000000e+00 3.000000e+01
      endloop
   endfacet
   facet normal 0.000000e+00 -1.000000e+00 0.000000e+00
      outer loop
         vertex 6.650000e+00 0.000000e+00 3.000000e+01
         vertex 1.000000e+01 0.000000e+00 0.000000e+00
         vertex 1.000000e+01 0.000000e+00 3.000000e+01
      endloop
   endfacet
   facet normal 0.000000e+00 -1.000000e+00 0.000000e+00
      outer loop
         vertex 6.650000e+00 0.000000e+00 3.000000e+01
         vertex 1.000000e+01 0.000000e+00 3.000000e+01
         vertex 1.000000e+01 0.000000e+00 3.335000e+01
      endloop
   endfacet
   facet normal 0.000000e+00 -1.000000e+00 0.000000e+00
      outer loop
         vertex 1.000000e+01 0.000000e+00 3.335000e+01
         vertex 1.000000e+01 0.000000e+00 3.000000e+01
         vertex 4.000000e+01 0.000000e+00 3.335000e+01
      endloop
   endfacet
   facet normal 0.000000e+00 -1.000000e+00 0.000000e+00
      outer loop
         vertex 6.650000e+00 0.000000e+00 3.000000e+01
         vertex 2.679093e+00 0.000000e+00 3.824533e+01
         vertex 1.754667e+00 0.000000e+00 3.732091e+01
      endloop
   endfacet
   facet normal -0.000000e+00 -1.000000e+00 0.000000e+00
      outer loop
         vertex 4.000000e+01 0.000000e+00 4.000000e+01
         vertex 7.500000e+00 0.000000e+00 4.000000e+01
         vertex 1.000000e+01 0.000000e+00 3.665000e+01
      endloop
   endfacet
   facet normal 0.000000e+00 -1.000000e+00 0.000000e+00
      outer loop
         vertex 1.000000e+01 0.000000e+00 3.665000e+01
         vertex 7.500000e+00 0.000000e+00 4.000000e+01
         vertex 6.197639e+00 0.000000e+00 3.988606e+01
      endloop
   endfacet
   facet normal -0.000000e+00 -1.000000e+00 -0.000000e+00
      outer loop
         vertex 1.000000e+01 0.000000e+00 3.665000e+01
         vertex 6.197639e+00 0.000000e+00 3.988606e+01
         vertex 1.000000e+01 0.000000e+00 3.335000e+01
      endloop
   endfacet
   facet normal 0.000000e+00 -1.000000e+00 0.000000e+00
      outer loop
         vertex 1.000000e+01 0.000000e+00 3.335000e+01
         vertex 6.197639e+00 0.000000e+00 3.988606e+01
         vertex 4.934849e+00 0.000000e+00 3.954769e+01
      endloop
   endfacet
   facet normal -0.000000e+00 -1.000000e+00 0.000000e+00
      outer loop
         vertex 1.000000e+01 0.000000e+00 3.335000e+01
         vertex 4.934849e+00 0.000000e+00 3.954769e+01
         vertex 6.650000e+00 0.000000e+00 3.000000e+01
      endloop
   endfacet
   facet normal 0.000000e+00 -1.000000e+00 0.000000e+00
      outer loop
         vertex 6.650000e+00 0.000000e+00 3.000000e+01
         vertex 4.934849e+00 0.000000e+00 3.954769e+01
         vertex 3.750000e+00 0.000000e+00 3.899519e+01
      endloop
   endfacet
   facet normal 0.000000e+00 -1.000000e+00 0.000000e+00
      outer loop
         vertex 6.650000e+00 0.000000e+00 3.000000e+01
         vertex 3.750000e+00 0.000000e+00 3.899519e+01
         vertex 2.679093e+00 0.000000e+00 3.824533e+01
      endloop
   endfacet
   facet normal 0.000000e+00 -1.000000e+00 -0.000000e+00
      outer loop
         vertex 1.754667e+00 0.000000e+00 3.732091e+01
         vertex 1.004810e+00 0.000000e+00 3.625000e+01
         vertex 6.650000e+00 0.000000e+00 3.000000e+01
      endloop
   endfacet
   facet normal 0.000000e+00 -1.000000e+00 0.000000e+00
      outer loop
         vertex 6.650000e+00 0.000000e+00 3.000000e+01
         vertex 1.004810e+00 0.000000e+00 3.625000e+01
         vertex 4.523053e-01 0.000000e+00 3.506515e+01
      endloop
   endfacet
   facet normal 0.000000e+00 -1.000000e+00 0.000000e+00
      outer loop
         vertex 6.650000e+00 0.000000e+00 3.000000e+01
         vertex 4.523053e-01 0.000000e+00 3.506515e+01
         vertex 3.350000e+00 0.000000e+00 3.000000e+01
      endloop
   endfacet
   facet normal 0.000000e+00 -1.000000e+00 0.000000e+00
      outer loop
         vertex 3.350000e+00 0.000000e+00 3.000000e+01
         vertex 4.523053e-01 0.000000e+00 3.506515e+01
         vertex 1.139419e-01 0.000000e+00 3.380236e+01
      endloop
   endfacet
   facet normal 0.000000e+00 -1.000000e+00 0.000000e+00
      outer loop
         vertex 3.350000e+00 0.000000e+00 3.000000e+01
         vertex 1.139419e-01 0.000000e+00 3.380236e+01
         vertex 0.000000e+00 0.000000e+00 3.250000e+01
      endloop
   endfacet
   facet normal -8.715576e-02 0.000000e+00 9.961947e-01
      outer loop
         vertex 7.500000e+00 0.000000e+00 4.000000e+01
         vertex 7.500000e+00 8.000000e+01 4.000000e+01
         vertex 6.197639e+00 8.000000e+01 3.988606e+01
      endloop
   endfacet
   facet normal -8.715576e-02 0.000000e+00 9.961947e-01
      outer loop
         vertex 7.500000e+00 0.000000e+00 4.000000e+01
         vertex 6.197639e+00 8.000000e+01 3.988606e+01
         vertex 6.197639e+00 0.000000e+00 3.988606e+01
      endloop
   endfacet
   facet normal -2.588190e-01 0.000000e+00 9.659258e-01
      outer loop
         vertex 6.197639e+00 0.000000e+00 3.988606e+01
         vertex 6.197639e+00 8.000000e+01 3.988606e+01
         vertex 4.934849e+00 8.000000e+01 3.954769e+01
      endloop
   endfacet
   facet normal -2.588190e-01 0.000000e+00 9.659258e-01
      outer loop
         vertex 6.197639e+00 0.000000e+00 3.988606e+01
         vertex 4.934849e+00 8.000000e+01 3.954769e+01
         vertex 4.934849e+00 0.000000e+00 3.954769e+01
      endloop
   endfacet
   facet normal -4.226183e-01 0.000000e+00 9.063078e-01
      outer loop
         vertex 4.934849e+00 0.000000e+00 3.954769e+01
         vertex 4.934849e+00 8.000000e+01 3.954769e+01
         vertex 3.750000e+00 8.000000e+01 3.899519e+01
      endloop
   endfacet
   facet normal -4.226183e-01 0.000000e+00 9.063078e-01
      outer loop
         vertex 4.934849e+00 0.000000e+00 3.954769e+01
         vertex 3.750000e+00 8.000000e+01 3.899519e+01
         vertex 3.750000e+00 0.000000e+00 3.899519e+01
      endloop
   endfacet
   facet normal -5.735765e-01 0.000000e+00 8.191520e-01
      outer loop
         vertex 3.750000e+00 0.000000e+00 3.899519e+01
         vertex 3.750000e+00 8.000000e+01 3.899519e+01
         vertex 2.679093e+00 8.000000e+01 3.824533e+01
      endloop
   endfacet
   facet normal -5.735765e-01 0.000000e+00 8.191520e-01
      outer loop
         vertex 3.750000e+00 0.000000e+00 3.899519e+01
         vertex 2.679093e+00 8.000000e+01 3.824533e+01
         vertex 2.679093e+00 0.000000e+00 3.824533e+01
      endloop
   endfacet
   facet normal -7.071068e-01 0.000000e+00 7.071068e-01
      outer loop
         vertex 2.679093e+00 0.000000e+00 3.824533e+01
         vertex 2.679093e+00 8.000000e+01 3.824533e+01
         vertex 1.754667e+00 8.000000e+01 3.732091e+01
      endloop
   endfacet
   facet normal -7.071068e-01 0.000000e+00 7.071068e-01
      outer loop
         vertex 2.679093e+00 0.000000e+00 3.824533e+01
         vertex 1.754667e+00 8.000000e+01 3.732091e+01
         vertex 1.754667e+00 0.000000e+00 3.732091e+01
      endloop
   endfacet
   facet normal -8.191520e-01 0.000000e+00 5.735765e-01
      outer loop
         vertex 1.754667e+00 0.000000e+00 3.732091e+01
         vertex 1.754667e+00 8.000000e+01 3.732091e+01
         vertex 1.004810e+00 8.000000e+01 3.625000e+01
      endloop
   endfacet
   facet normal -8.191520e-01 0.000000e+00 5.735765e-01
      outer loop
         vertex 1.754667e+00 0.000000e+00 3.732091e+01
         vertex 1.004810e+00 8.000000e+01 3.625000e+01
         vertex 1.004810e+00 0.000000e+00 3.625000e+01
      endloop
   endfacet
   facet normal -9.063078e-01 0.000000e+00 4.226183e-01
      outer loop
         vertex 1.004810e+00 0.000000e+00 3.625000e+01
         vertex 1.004810e+00 8.000000e+01 3.625000e+01
         vertex 4.523053e-01 8.000000e+01 3.506515e+01
      endloop
   endfacet
   facet normal -9.063078e-01 0.000000e+00 4.226183e-01
      outer loop
         vertex 1.004810e+00 0.000000e+00 3.625000e+01
         vertex 4.523053e-01 8.000000e+01 3.506515e+01
         vertex 4.523053e-01 0.000000e+00 3.506515e+01
      endloop
   endfacet
   facet normal -9.659258e-01 0.000000e+00 2.588190e-01
      outer loop
         vertex 4.523053e-01 0.000000e+00 3.506515e+01
         vertex 4.523053e-01 8.000000e+01 3.506515e+01
         vertex 1.139419e-01 8.000000e+01 3.380236e+01
      endloop
   endfacet
   facet normal -9.659258e-01 0.000000e+00 2.588190e-01
      outer loop
         vertex 4.523053e-01 0.000000e+00 3.506515e+01
         vertex 1.139419e-01 8.000000e+01 3.380236e+01
         vertex 1.139419e-01 0.000000e+00 3.380236e+01
      endloop
   endfacet
   facet normal -9.961947e-01 0.000000e+00 8.715576e-02
      outer loop
         vertex 1.139419e-01 0.000000e+00 3.380236e+01
         vertex 1.139419e-01 8.000000e+01 3.380236e+01
         vertex 0.000000e+00 8.000000e+01 3.250000e+01
      endloop
   endfacet
   facet normal -9.961947e-01 0.000000e+00 8.715576e-02
      outer loop
         vertex 1.139419e-01 0.000000e+00 3.380236e+01
         vertex 0.000000e+00 8.000000e+01 3.250000e+01
         vertex 0.000000e+00 0.000000e+00 3.250000e+01
      endloop
   endfacet
endsolid